<svg width="24" height="24" viewBox="0 0 22 18" fill="none" xmlns="http://www.w3.org/2000/svg">
<path fill-rule="evenodd" clip-rule="evenodd" d="M17.8 16.3155V16.8H1.2V16.3155C1.2 16.0887 1.43702 15.709 1.64037 15.6098L7.30072 12.8476C8.82521 12.1037 9.20664 10.3039 8.11061 9.00481L7.74908 8.57631C7.19575 7.92048 6.7 6.56566 6.7 5.70929V3.99958C6.7 2.4552 7.95631 1.2 9.5 1.2C11.0456 1.2 12.3 2.45491 12.3 4.00021V5.71019C12.3 6.56439 11.8022 7.92427 11.2509 8.57781L10.8893 9.00637C9.79557 10.3029 10.1729 12.1044 11.6995 12.849L17.3598 15.6101C17.5647 15.71 17.8 16.0861 17.8 16.3155ZM0 16.3155V17C0 17.5523 0.447715 18 1 18H18C18.5523 18 19 17.5523 19 17V16.3155C19 15.6252 18.5012 14.8317 17.8859 14.5316L12.2255 11.7705C11.4012 11.3684 11.217 10.479 11.8066 9.78013L12.1681 9.35157C12.9009 8.48286 13.5 6.8493 13.5 5.71019V4.00021C13.5 1.79298 11.7091 0 9.5 0C7.29536 0 5.5 1.79067 5.5 3.99958V5.70929C5.5 6.8495 6.09632 8.47828 6.83191 9.35014L7.19345 9.77864C7.78626 10.4813 7.59538 11.3685 6.77445 11.7691L1.1141 14.5313C0.498151 14.8319 0 15.6304 0 16.3155ZM22 11.5H19V12.7H22V11.5ZM17 8.5H22V9.7H17V8.5ZM22 5.5H15V6.7H22V5.5Z" fill="black" fill-opacity="0.9"/>
</svg>
