<svg width="24" height="24" viewBox="0 0 20 18" fill="none" xmlns="http://www.w3.org/2000/svg">
<path fill-rule="evenodd" clip-rule="evenodd" d="M1.5 18C0.947715 18 0.5 17.5523 0.5 17L0.5 16.3155C0.5 15.6304 0.998151 14.8319 1.6141 14.5313L7.27445 11.7691C8.09538 11.3685 8.28626 10.4813 7.69345 9.77864L7.33191 9.35014C6.59632 8.47828 6 6.8495 6 5.70929V3.99958C6 1.79067 7.79536 0 10 0C12.2091 0 14 1.79298 14 4.00021V5.71019C14 6.8493 13.4009 8.48286 12.6681 9.35157L12.3066 9.78013C11.717 10.479 11.9012 11.3684 12.7255 11.7705L18.3859 14.5316C19.0012 14.8317 19.5 15.6252 19.5 16.3155V17C19.5 17.5523 19.0523 18 18.5 18H1.5Z" fill="#07C160"/>
</svg>
