<svg  viewBox="0 0 24 24"  xmlns="http://www.w3.org/2000/svg">
<path fill-rule="evenodd" clip-rule="evenodd" d="M20.3 19.8V19.3155C20.3 19.0861 20.0647 18.71 19.8598 18.6101L14.1995 15.849C12.6729 15.1044 12.2956 13.3029 13.3893 12.0064L13.7509 11.5778C14.3022 10.9243 14.8 9.56439 14.8 8.71019V7.00021C14.8 5.45491 13.5456 4.2 12 4.2C10.4563 4.2 9.2 5.4552 9.2 6.99958V8.70929C9.2 9.56566 9.69575 10.9205 10.2491 11.5763L10.6106 12.0048C11.7066 13.3039 11.3252 15.1037 9.80072 15.8476L4.14037 18.6098C3.93702 18.709 3.7 19.0887 3.7 19.3155V19.8H20.3ZM2.5 20V19.3155C2.5 18.6304 2.99815 17.8319 3.6141 17.5313L9.27445 14.7691C10.0954 14.3685 10.2863 13.4813 9.69345 12.7786L9.33191 12.3501C8.59632 11.4783 8 9.8495 8 8.70929V6.99958C8 4.79067 9.79536 3 12 3C14.2091 3 16 4.79298 16 7.00021V8.71019C16 9.8493 15.4009 11.4829 14.6681 12.3516L14.3066 12.7801C13.717 13.479 13.9012 14.3684 14.7255 14.7705L20.3859 17.5316C21.0012 17.8317 21.5 18.6252 21.5 19.3155V20C21.5 20.5523 21.0523 21 20.5 21H3.5C2.94772 21 2.5 20.5523 2.5 20Z"  fill-opacity="0.9"/>
</svg>
