<svg width="24" height="24" viewBox="0 0 24 24"  xmlns="http://www.w3.org/2000/svg">
<path fill-rule="evenodd" clip-rule="evenodd" d="M11.2695 8.1875C9.57031 8.1875 8.46875 9.62891 8.46875 11.8438C8.46875 14.0469 9.55859 15.4766 11.2578 15.4766C12.9922 15.4766 14.1055 14.0234 14.1055 11.7852C14.1055 9.58203 13.0156 8.1875 11.2695 8.1875ZM11.6445 2C16.7798 2 21.0195 5.52734 21.0195 10.7188C21.0195 14.4453 19.4727 16.8359 16.8945 16.8359C15.5 16.8359 14.3984 15.9922 14.2227 14.6797H14.1406C13.6133 16.0156 12.5234 16.7539 11.0703 16.7539C8.65625 16.7539 7.01562 14.7617 7.01562 11.8086C7.01562 8.92578 8.67969 6.93359 11.0703 6.93359C12.4297 6.93359 13.6133 7.67188 14.0469 8.82031H14.1289V7.16797H15.4883V13.8711C15.4883 14.9375 16.0508 15.6406 17.1172 15.6406C18.6758 15.6406 19.7422 13.8477 19.7422 10.6953C19.7422 6.21875 16.2382 3.1757 11.6445 3.1757C7.05087 3.1757 3.28906 6.52564 3.28906 11.7734C3.28906 16.6482 7.30318 20.3633 11.7734 20.3633C13.3555 20.3633 14.8672 20.1641 15.6641 19.8477V21.0078C14.7148 21.3359 13.332 21.5234 11.7617 21.5234C6.19795 21.5234 2 17.3256 2 11.7266C2 6.12752 6.50924 2 11.6445 2Z"  fill-opacity="0.9"/>
</svg>
