<svg viewBox="0 0 24 24"  xmlns="http://www.w3.org/2000/svg">
<path fill-rule="evenodd" clip-rule="evenodd" d="M19.2846 12.6451C20.7288 11.1568 20.7119 8.78154 19.2434 7.31299C17.7594 5.829 15.3533 5.829 13.8693 7.31299C13.6771 7.50526 13.4332 7.7405 13.1366 8.01995L12.3137 8.79528L11.4908 8.01995C11.1942 7.7405 10.9503 7.50526 10.7581 7.31299C9.27408 5.829 6.86805 5.829 5.38406 7.31299C3.91554 8.78152 3.89858 11.1569 5.32967 12.6326L12.3137 19.6167L19.2846 12.6451ZM4.53553 6.46447C6.48815 4.51184 9.65398 4.51184 11.6066 6.46447C11.7894 6.64727 12.0251 6.87463 12.3137 7.14655C12.6023 6.87463 12.838 6.64727 13.0208 6.46447C14.9734 4.51184 18.1393 4.51184 20.0919 6.46447C22.0263 8.39892 22.0443 11.5241 20.1459 13.4807L13.0208 20.6066C12.6303 20.9971 11.9971 20.9972 11.6066 20.6067L4.48114 13.4811C2.58308 11.5241 2.60107 8.39892 4.53553 6.46447Z"  fill-opacity="0.9"/>
</svg>
