<svg width="24" height="24" viewBox="0 0 24 24" xmlns="http://www.w3.org/2000/svg">
<path fill-rule="evenodd" clip-rule="evenodd" d="M12.0652 21.2432C12.063 21.2412 12.0609 21.2393 12.0587 21.2375L12.0652 21.2432ZM12.2468 20.9686C12.4829 20.7558 12.7473 20.5078 13.0328 20.2279C13.8506 19.4261 14.6689 18.5335 15.4302 17.5769C17.4693 15.0144 18.7114 12.4871 18.7955 10.2397C18.7985 10.1593 18.8 10.0794 18.8 10C18.8 6.24446 15.7555 3.2 12 3.2C8.24446 3.2 5.2 6.24446 5.2 10C5.2 10.0794 5.20151 10.1593 5.20451 10.2397C5.28861 12.4871 6.53066 15.0144 8.56983 17.5769C9.33111 18.5335 10.1494 19.4261 10.9672 20.2279C11.2527 20.5078 11.5171 20.7558 11.7532 20.9686C11.8635 21.0681 11.947 21.1414 12 21.187C12.053 21.1414 12.1365 21.0681 12.2468 20.9686ZM11.2617 22.1345C11.2617 22.1345 4 16.0183 4 10C4 5.58172 7.58172 2 12 2C16.4183 2 20 5.58172 20 10C20 16.0183 12.7383 22.1345 12.7383 22.1345C12.3336 22.506 11.6695 22.502 11.2617 22.1345ZM12 12.8C13.5464 12.8 14.8 11.5464 14.8 10C14.8 8.4536 13.5464 7.2 12 7.2C10.4536 7.2 9.2 8.4536 9.2 10C9.2 11.5464 10.4536 12.8 12 12.8ZM12 14C9.79086 14 8 12.2091 8 10C8 7.79086 9.79086 6 12 6C14.2091 6 16 7.79086 16 10C16 12.2091 14.2091 14 12 14Z"  fill-opacity="0.9"/>
</svg>
