<svg viewBox="0 0 24 24"  xmlns="http://www.w3.org/2000/svg">
<path fill-rule="evenodd" clip-rule="evenodd" d="M17 5V7H19V5H17ZM11 19H13V21H11V19ZM19 11H21V13H19V11ZM11 15H13V17H11V15ZM15 11H17V13H15V11ZM4 3H12C12.5523 3 13 3.44772 13 4V12C13 12.5523 12.5523 13 12 13H4C3.44772 13 3 12.5523 3 12V4C3 3.44772 3.44772 3 4 3ZM5 5V11H11V5H5ZM7 7H9V9H7V7ZM16 3H20C20.5523 3 21 3.44772 21 4V8C21 8.55228 20.5523 9 20 9H16C15.4477 9 15 8.55228 15 8V4C15 3.44772 15.4477 3 16 3ZM16 15H20C20.5523 15 21 15.4477 21 16V20C21 20.5523 20.5523 21 20 21H16C15.4477 21 15 20.5523 15 20V16C15 15.4477 15.4477 15 16 15ZM17 17V19H19V17H17ZM4 15H8C8.55228 15 9 15.4477 9 16V20C9 20.5523 8.55228 21 8 21H4C3.44772 21 3 20.5523 3 20V16C3 15.4477 3.44772 15 4 15ZM5 17V19H7V17H5Z" fill-opacity="0.9"/>
</svg>
