<svg width="24" height="24" viewBox="0 0 24 24" fill="none" xmlns="http://www.w3.org/2000/svg">
<path fill-rule="evenodd" clip-rule="evenodd" d="M14.7324 4C14.8996 4 15.0557 4.08355 15.1484 4.22265L17 7H21C21.5523 7 22 7.44772 22 8V19C22 19.5523 21.5523 20 21 20H3C2.44772 20 2 19.5523 2 19V8C2 7.44772 2.44772 7 3 7H7L8.85157 4.22265C8.9443 4.08355 9.10042 4 9.26759 4H14.7324ZM15.5 13C15.5 14.933 13.933 16.5 12 16.5C10.067 16.5 8.5 14.933 8.5 13C8.5 11.067 10.067 9.5 12 9.5C13.933 9.5 15.5 11.067 15.5 13Z" fill="black" fill-opacity="0.9"/>
</svg>
