<svg width="24" height="24" viewBox="0 0 24 24" fill="none" xmlns="http://www.w3.org/2000/svg">
<path fill-rule="evenodd" clip-rule="evenodd" d="M2 12C2 17.5228 6.47715 22 12 22C17.5228 22 22 17.5228 22 12C22 6.47715 17.5228 2 12 2C6.47715 2 2 6.47715 2 12ZM20.8 12C20.8 16.8601 16.8601 20.8 12 20.8C7.13989 20.8 3.2 16.8601 3.2 12C3.2 7.13989 7.13989 3.2 12 3.2C16.8601 3.2 20.8 7.13989 20.8 12ZM18 12.5C18 15.8137 15.3137 18.5 12 18.5C8.68629 18.5 6 15.8137 6 12.5H18ZM16.6488 13.7C16.1159 15.7703 14.2366 17.3 12 17.3C9.76339 17.3 7.88407 15.7703 7.35122 13.7H16.6488ZM8.5 10.5C9.32843 10.5 10 9.82843 10 9C10 8.17157 9.32843 7.5 8.5 7.5C7.67157 7.5 7 8.17157 7 9C7 9.82843 7.67157 10.5 8.5 10.5ZM17 9C17 9.82843 16.3284 10.5 15.5 10.5C14.6716 10.5 14 9.82843 14 9C14 8.17157 14.6716 7.5 15.5 7.5C16.3284 7.5 17 8.17157 17 9Z" fill="black" fill-opacity="0.9"/>
</svg>
