<svg width="24" height="24" viewBox="0 0 24 24" fill="none" xmlns="http://www.w3.org/2000/svg">
<path fill-rule="evenodd" clip-rule="evenodd" d="M20.1991 6.40021L12 11.134L3.80086 6.4002C3.82137 6.38682 3.84208 6.37414 3.86296 6.36221L11.137 2.20425C11.6136 1.93182 12.3867 1.93202 12.863 2.20425L20.137 6.36221C20.1579 6.37414 20.1786 6.38682 20.1991 6.40021ZM20.9896 7.67586C20.9965 7.72902 21 7.78146 21 7.83273V16.1673C21 16.707 20.6133 17.3656 20.137 17.6378L12.863 21.7958C12.8269 21.8164 12.7892 21.8354 12.75 21.8529V12.433L20.9896 7.67586ZM11.25 21.8529C11.2108 21.8354 11.1731 21.8164 11.137 21.7958L3.86296 17.6378C3.38636 17.3654 3 16.7024 3 16.1673V7.83273C3 7.78135 3.0035 7.72889 3.01026 7.6758L11.25 12.433V21.8529Z" fill="black" fill-opacity="0.9"/>
</svg>
