<svg width="24" height="24" viewBox="0 0 24 24" fill="none" xmlns="http://www.w3.org/2000/svg">
<path fill-rule="evenodd" clip-rule="evenodd" d="M7.28607 4.98365C6.8271 5.08416 6.5 5.49065 6.5 5.9605V6.31183V6.83008V16.4431C6.5 16.904 6.18657 17.3057 5.73958 17.4179L4.47507 17.7352C3.65606 17.8999 2.95018 18.7975 3.00276 19.8739C3.05534 20.9502 4.01017 22.0147 5.25286 21.7647C5.38219 21.7387 6.37268 21.5173 6.52947 21.4441C7.37291 21.0508 8 20.1377 8 19.2013V18.1958V6.50123L18 4.30893V13.7783C18 14.2404 17.6848 14.643 17.2362 14.7539L15.9445 15.0732C15.1183 15.238 14.4063 16.1355 14.4594 17.2119C14.5124 18.2883 15.4755 19.3527 16.729 19.1027C16.8595 19.0767 17.8585 18.8553 18.0167 18.7822C18.8675 18.3888 19.5 17.4758 19.5 16.5394V15.5339V3.98008V3.48748V2.93016C19.5 2.61092 19.2049 2.37344 18.893 2.44174L7.28607 4.98365Z" fill="black" fill-opacity="0.9"/>
</svg>
