<svg width="24" height="24" viewBox="0 0 24 24" fill="none" xmlns="http://www.w3.org/2000/svg">
<path fill-rule="evenodd" clip-rule="evenodd" d="M20.4999 8.49999H9.13327L10.1011 5.41313C10.1398 5.28977 10.1165 5.15534 10.0385 5.05222C9.90528 4.876 9.65442 4.84115 9.4782 4.97439L3.35861 9.60116C3.23362 9.69566 3.16016 9.84329 3.16016 9.99999C3.16016 10.2761 3.38401 10.5 3.66016 10.5H20.4999V8.49999ZM3.49991 15.5H14.8655L13.8976 18.5869C13.8589 18.7102 13.8823 18.8446 13.9602 18.9478C14.0935 19.124 14.3443 19.1588 14.5205 19.0256L20.6401 14.3988C20.7651 14.3043 20.8386 14.1567 20.8386 14C20.8386 13.7239 20.6147 13.5 20.3386 13.5H18.9988H3.49991V15.5Z" fill="black" fill-opacity="0.9"/>
</svg>
