<svg width="20" height="20" viewBox="0 0 20 20" fill="none" xmlns="http://www.w3.org/2000/svg">
<path fill-rule="evenodd" clip-rule="evenodd" d="M10 20C4.47715 20 0 15.5228 0 10C0 4.47715 4.47715 0 10 0C15.5228 0 20 4.47715 20 10C20 15.5228 15.5228 20 10 20ZM10 18.8C14.8601 18.8 18.8 14.8601 18.8 10C18.8 5.13989 14.8601 1.2 10 1.2C5.13989 1.2 1.2 5.13989 1.2 10C1.2 14.8601 5.13989 18.8 10 18.8ZM12.3 10C12.3 11.8291 11.5761 13.5405 10.3083 14.8083L11.1569 15.6569C12.6046 14.2091 13.5 12.2091 13.5 10C13.5 7.79086 12.6046 5.79086 11.1569 4.34315L10.3083 5.19167C11.5761 6.45947 12.3 8.17091 12.3 10ZM8.32843 12.8284C9.07451 12.0823 9.5 11.0764 9.5 10C9.5 8.92363 9.07451 7.91766 8.32843 7.17157L9.17696 6.32304C10.118 7.26406 10.7 8.56406 10.7 10C10.7 11.4359 10.118 12.7359 9.17696 13.677L8.32843 12.8284ZM7.9 10C7.9 10.6627 7.63137 11.2627 7.19706 11.6971L5.5 10L7.19706 8.30294C7.63137 8.73726 7.9 9.33726 7.9 10Z" fill="black" fill-opacity="0.9"/>
</svg>
