<svg  viewBox="0 0 24 24"  xmlns="http://www.w3.org/2000/svg">
<path fill-rule="evenodd" clip-rule="evenodd" d="M7.83191 12.3501C7.09632 11.4783 6.5 9.8495 6.5 8.70929V6.99958C6.5 4.79067 8.29536 3 10.5 3C12.7091 3 14.5 4.79298 14.5 7.00021V8.71019C14.5 9.8493 13.9009 11.4829 13.1681 12.3516L12.8066 12.7801C12.217 13.479 12.4012 14.3684 13.2255 14.7705L18.8859 17.5316C19.5012 17.8317 20 18.6252 20 19.3155V20.0016C20 20.553 19.5491 21 18.9986 21H2.00143C1.44836 21 1 20.5558 1 20.0016V19.3155C1 18.6304 1.49815 17.8319 2.1141 17.5313L7.77445 14.7691C8.59538 14.3685 8.78626 13.4813 8.19345 12.7786L7.83191 12.3501ZM20.25 10.75H23V12.25H20.25V15H18.75V12.25H16V11.5V10.75H18.75V8H20.25V10.75Z"  fill-opacity="0.9"/>
</svg>
