<svg  viewBox="0 0 24 24"  xmlns="http://www.w3.org/2000/svg">
<path fill-rule="evenodd" clip-rule="evenodd" d="M4 3C3.44772 3 3 3.44772 3 4V20C3 20.5523 3.44772 21 4 21H20C20.5523 21 21 20.5523 21 20V4C21 3.44772 20.5523 3 20 3H4ZM13.2 15.6H10.8V13.2H13.2L13.2 15.6ZM15.6 15.6H13.2V18H10.8V15.6H8.4V13.2L10.8 13.2V10.8H13.2V13.2H15.6V15.6ZM15.6 15.6H18V18H15.6V15.6ZM15.6 10.8H13.2V8.4H15.6V10.8ZM15.6 8.4V6H18V8.4H15.6ZM15.6 10.8H18V13.2L15.6 13.2V10.8ZM8.4 10.8V13.2H6V10.8H8.4ZM8.4 8.4V10.8H10.8V8.4H13.2L13.2 6H10.8V8.4H8.4ZM8.4 8.4H6V6H8.4V8.4ZM8.4 15.6H6V18H8.4V15.6Z"  fill-opacity="0.9"/>
</svg>
