<svg  viewBox="0 0 24 24"  xmlns="http://www.w3.org/2000/svg">
<path fill-rule="evenodd" clip-rule="evenodd" d="M22 12C22 17.5228 17.5228 22 12 22C6.47715 22 2 17.5228 2 12C2 6.47715 6.47715 2 12 2C17.5228 2 22 6.47715 22 12ZM17.4776 13C17.225 15.8033 14.869 18 12 18C9.13098 18 6.77504 15.8033 6.52242 13H17.4776ZM8.5 10.5C9.32843 10.5 10 9.82843 10 9C10 8.17157 9.32843 7.5 8.5 7.5C7.67157 7.5 7 8.17157 7 9C7 9.82843 7.67157 10.5 8.5 10.5ZM17 9C17 9.82843 16.3284 10.5 15.5 10.5C14.6716 10.5 14 9.82843 14 9C14 8.17157 14.6716 7.5 15.5 7.5C16.3284 7.5 17 8.17157 17 9Z" fill-opacity="0.9"/>
</svg>
