<svg  viewBox="0 0 24 24"  xmlns="http://www.w3.org/2000/svg">
<path fill-rule="evenodd" clip-rule="evenodd" d="M4 6H8V4H3C2.44772 4 2 4.44772 2 5V9H4V6ZM20 6H16V4H21C21.5523 4 22 4.44772 22 5V9H20V6ZM8 18H4V15H2V19C2 19.5523 2.44772 20 3 20H8V18ZM20 18H16V20H21C21.5523 20 22 19.5523 22 19V15H20V18ZM12 15.2426L11.2929 15.9497C10.9024 16.3403 10.2692 16.3403 9.87868 15.9497L9.17157 15.2426L6.34315 12.4142L7.75736 11L10.5858 13.8284L16.2426 8.17157L17.6569 9.58579L12 15.2426Z"  fill-opacity="0.9"/>
</svg>
