<svg  viewBox="0 0 24 24"  xmlns="http://www.w3.org/2000/svg">
<path fill-rule="evenodd" clip-rule="evenodd" d="M10.5915 3.78873C11.2958 4.6338 11.7887 5.69014 12.0704 7H16C16.5523 7 17 7.44772 17 8C17 8.55228 16.5523 9 16 9H6.3662C5.80282 9 5.30986 9.35211 5.23944 9.91549V10.1268V11.8873C5.23944 12.4507 5.02817 13.0141 4.60563 13.4366C4.39437 13.7183 3.97183 14 3.61972 14C3.12676 14 2.77465 13.5775 2.84507 13.0845C2.84507 13.0845 2.91549 12.3803 2.91549 12.0282C2.91549 11.2535 2.84507 10.4085 2.6338 9.6338C2.56338 9.35211 2.49296 9.14084 2.42253 8.92958C2.14084 8.01408 2 7.09859 2 6.11268V5.33803C2.07042 4.70423 2.35211 4.07042 2.70423 3.57747C3.33803 2.66197 4.39437 2.09859 5.59155 2H7.42253C8.47887 2.02817 9.46479 2.52113 10.169 3.22535C10.3099 3.3662 10.4507 3.57746 10.5915 3.78873ZM13.4085 20.2113C12.7042 19.3662 12.2113 18.3099 11.9296 17H8C7.44772 17 7 16.5523 7 16C7 15.4477 7.44772 15 8 15H17.6338C18.1972 15 18.6901 14.6479 18.7606 14.0845V13.8732V12.1127C18.7606 11.5493 18.9718 10.9859 19.3944 10.5634C19.6056 10.2817 20.0282 10 20.3803 10C20.8732 10 21.2254 10.4225 21.1549 10.9155C21.1549 10.9155 21.0845 11.6197 21.0845 11.9718C21.0845 12.7465 21.1549 13.5915 21.3662 14.3662C21.4366 14.6479 21.507 14.8592 21.5775 15.0704C21.8592 15.9859 22 16.9014 22 17.8873V18.662C21.9296 19.2958 21.6479 19.9296 21.2958 20.4225C20.662 21.338 19.6056 21.9014 18.4085 22H16.5775C15.5211 21.9718 14.5352 21.4789 13.831 20.7746C13.6901 20.6338 13.5493 20.4225 13.4085 20.2113Z"  fill-opacity="0.9"/>
</svg>
