<svg width="22" height="18" viewBox="0 0 22 18" fill="none" xmlns="http://www.w3.org/2000/svg">
<path fill-rule="evenodd" clip-rule="evenodd" d="M6.83191 9.35014C6.09632 8.47828 5.5 6.8495 5.5 5.70929V3.99958C5.5 1.79067 7.29536 0 9.5 0C11.7091 0 13.5 1.79298 13.5 4.00021V5.71019C13.5 6.8493 12.9009 8.48286 12.1681 9.35157L11.8066 9.78013C11.217 10.479 11.4012 11.3684 12.2255 11.7705L17.8859 14.5316C18.5012 14.8317 19 15.6252 19 16.3155V17.0016C19 17.553 18.5491 18 17.9986 18H1.00143C0.448355 18 0 17.5558 0 17.0016V16.3155C0 15.6304 0.498151 14.8319 1.1141 14.5313L6.77445 11.7691C7.59538 11.3685 7.78626 10.4813 7.19345 9.77864L6.83191 9.35014ZM1.2 16.8H17.8V16.3155C17.8 16.0861 17.5647 15.71 17.3598 15.6101L11.6995 12.849C10.1729 12.1044 9.79557 10.3029 10.8893 9.00637L11.2509 8.57781C11.8022 7.92427 12.3 6.56439 12.3 5.71019V4.00021C12.3 2.45491 11.0456 1.2 9.5 1.2C7.95631 1.2 6.7 2.4552 6.7 3.99958V5.70929C6.7 6.56566 7.19575 7.92048 7.74908 8.57631L8.11061 9.00481C9.20664 10.3039 8.82521 12.1037 7.30072 12.8476L1.64037 15.6098C1.43702 15.709 1.2 16.0887 1.2 16.3155V16.8ZM17.9 5V7.89999H15V9.09999H17.9V12H19.1V9.09999H22V7.89999H19.1V5H17.9Z" fill="black" fill-opacity="0.9"/>
</svg>
