<svg width="24" height="24" viewBox="0 0 24 24"  xmlns="http://www.w3.org/2000/svg">
<path fill-rule="evenodd" clip-rule="evenodd" d="M8.66745 18.2678L9.10724 18.3952C10.0285 18.662 11.0022 18.8 12 18.8C16.8994 18.8 20.8 15.4845 20.8 11.5C20.8 7.51548 16.8994 4.2 12 4.2C7.10057 4.2 3.2 7.51548 3.2 11.5C3.2 13.5759 4.25693 15.5261 6.10059 16.9114L6.65126 17.3251L6.41619 19.3473L8.66745 18.2678ZM12 20C10.871 20 9.78573 19.841 8.77345 19.5478L5.7905 20.9782C5.70535 21.019 5.61038 21.0349 5.51658 21.024C5.24229 20.9921 5.04577 20.7439 5.07766 20.4696L5.37976 17.8707C3.307 16.3133 2 14.0364 2 11.5C2 6.80558 6.47715 3 12 3C17.5228 3 22 6.80558 22 11.5C22 16.1944 17.5228 20 12 20Z"  fill-opacity="0.9"/>
</svg>
