<svg width="24" height="24" viewBox="0 0 22 18" fill="none" xmlns="http://www.w3.org/2000/svg">
<path fill-rule="evenodd" clip-rule="evenodd" d="M0 17C0 17.5523 0.447715 18 1 18H18C18.5523 18 19 17.5523 19 17V16.3155C19 15.6252 18.5012 14.8317 17.8859 14.5316L12.2255 11.7705C11.4012 11.3684 11.217 10.479 11.8066 9.78013L12.1681 9.35157C12.9009 8.48286 13.5 6.8493 13.5 5.71019V4.00021C13.5 1.79298 11.7091 0 9.5 0C7.29536 0 5.5 1.79067 5.5 3.99958V5.70929C5.5 6.8495 6.09632 8.47828 6.83191 9.35014L7.19345 9.77864C7.78626 10.4813 7.59538 11.3685 6.77445 11.7691L1.1141 14.5313C0.498151 14.8319 0 15.6304 0 16.3155V17ZM22 11.5H19V13H22V11.5ZM17 8.5H22V10H17V8.5ZM22 5.5H15V7H22V5.5Z" fill="#07C160"/>
</svg>
