<svg width="24" height="24" viewBox="0 0 24 24" fill="none" xmlns="http://www.w3.org/2000/svg">
<path fill-rule="evenodd" clip-rule="evenodd" d="M11.9999 22.2667C17.67 22.2667 22.2666 17.6702 22.2666 12C22.2666 6.32992 17.67 1.73337 11.9999 1.73337C6.3298 1.73337 1.73325 6.32992 1.73325 12C1.73325 17.6702 6.3298 22.2667 11.9999 22.2667ZM11.9999 23.6667C5.5566 23.6667 0.333252 18.4434 0.333252 12C0.333252 5.55672 5.5566 0.333374 11.9999 0.333374C18.4432 0.333374 23.6666 5.55672 23.6666 12C23.6666 18.4434 18.4432 23.6667 11.9999 23.6667ZM10.9772 10.9773L8.81184 15.1881L13.0227 13.0228L15.188 8.81196L10.9772 10.9773ZM9.93752 9.93765L16.8117 6.40277C16.9791 6.31668 17.1778 6.31668 17.3452 6.40277C17.6317 6.5501 17.7445 6.90179 17.5972 7.1883L14.0623 14.0624L7.18818 17.5973C7.02075 17.6834 6.82207 17.6834 6.65465 17.5973C6.36815 17.45 6.25532 17.0983 6.40265 16.8118L9.93752 9.93765Z" fill="black" fill-opacity="0.9"/>
</svg>

