<svg width="24" height="24" viewBox="0 0 24 24" xmlns="http://www.w3.org/2000/svg">
<path fill-rule="evenodd" clip-rule="evenodd" d="M9.27361 14.3862C9.1833 14.4322 9.08164 14.4593 8.97388 14.4593C8.72373 14.4593 8.50627 14.3189 8.39214 14.1115L8.34865 14.0143L6.52783 9.93907C6.50816 9.89471 6.49597 9.84441 6.49597 9.79553C6.49597 9.6079 6.64528 9.45588 6.82922 9.45588C6.90457 9.45588 6.97299 9.48103 7.02895 9.52341L9.17721 11.0835C9.33372 11.188 9.52181 11.2496 9.72348 11.2496C9.84343 11.2496 9.95839 11.227 10.065 11.1872L20.1681 6.60079C18.3572 4.42331 15.3746 3 11.9997 3C6.47658 3 2 6.80594 2 11.5008C2 14.0621 3.34657 16.3681 5.45494 17.9265C5.6242 18.0494 5.73473 18.2514 5.73473 18.4803C5.73473 18.5561 5.71949 18.6244 5.69955 18.6968C5.5314 19.3376 5.26186 20.3634 5.2494 20.4117C5.22834 20.4917 5.19538 20.5759 5.19538 20.6604C5.19538 20.8477 5.34441 21 5.52918 21C5.60121 21 5.66021 20.9726 5.72143 20.937L7.91069 19.6473C8.07524 19.5504 8.24948 19.4905 8.44173 19.4905C8.54395 19.4905 8.64284 19.5066 8.73564 19.5357C9.757 19.8352 10.859 20.0017 11.9997 20.0017C17.5226 20.0017 22 16.1957 22 11.5008C22 10.0792 21.587 8.73985 20.8606 7.56209L9.34674 14.3429L9.27361 14.3862Z"  />
</svg>
