<svg width="24" height="24" viewBox="0 0 24 24" fill="none" xmlns="http://www.w3.org/2000/svg">
<path fill-rule="evenodd" clip-rule="evenodd" d="M6.75 12C6.75 12.9664 5.96635 13.75 5 13.75C4.03365 13.75 3.25 12.9664 3.25 12C3.25 11.0333 4.03365 10.25 5 10.25C5.96635 10.25 6.75 11.0333 6.75 12ZM12 10.25C12.9663 10.25 13.75 11.0333 13.75 12C13.75 12.9664 12.9663 13.75 12 13.75C11.0336 13.75 10.25 12.9664 10.25 12C10.25 11.0333 11.0336 10.25 12 10.25ZM20.75 12C20.75 11.0333 19.9664 10.25 19 10.25C18.0337 10.25 17.25 11.0333 17.25 12C17.25 12.9664 18.0337 13.75 19 13.75C19.9664 13.75 20.75 12.9664 20.75 12Z" fill="black" fill-opacity="0.9"/>
</svg>
